<svg width="21" height="21" viewBox="0 0 21 21" fill="none" xmlns="http://www.w3.org/2000/svg">
<path d="M20.1476 18.5702L16.3711 14.8048C17.5896 13.2525 18.2507 11.3355 18.2482 9.3621C18.2482 7.60461 17.7271 5.88659 16.7507 4.42529C15.7743 2.96399 14.3865 1.82505 12.7628 1.15249C11.1391 0.479924 9.35237 0.303951 7.62865 0.646821C5.90493 0.98969 4.32159 1.836 3.07886 3.07873C1.83612 4.32147 0.989812 5.90481 0.646943 7.62853C0.304074 9.35225 0.480046 11.1389 1.15261 12.7626C1.82517 14.3863 2.96411 15.7742 4.42541 16.7506C5.88671 17.727 7.60474 18.2481 9.36222 18.2481C11.3357 18.2506 13.2526 17.5894 14.8049 16.371L18.5704 20.1475C18.6736 20.2516 18.7965 20.3343 18.9318 20.3906C19.0672 20.447 19.2124 20.4761 19.359 20.4761C19.5056 20.4761 19.6508 20.447 19.7862 20.3906C19.9215 20.3343 20.0444 20.2516 20.1476 20.1475C20.2517 20.0443 20.3344 19.9214 20.3908 19.7861C20.4472 19.6507 20.4762 19.5055 20.4762 19.3589C20.4762 19.2122 20.4472 19.0671 20.3908 18.9317C20.3344 18.7964 20.2517 18.6735 20.1476 18.5702ZM2.69771 9.3621C2.69771 8.04399 3.08857 6.75547 3.82088 5.65949C4.55319 4.56352 5.59404 3.70931 6.81182 3.20489C8.02961 2.70047 9.36962 2.56849 10.6624 2.82564C11.9552 3.08279 13.1427 3.71753 14.0748 4.64958C15.0068 5.58163 15.6415 6.76913 15.8987 8.06192C16.1558 9.35471 16.0239 10.6947 15.5194 11.9125C15.015 13.1303 14.1608 14.1711 13.0648 14.9034C11.9689 15.6358 10.6803 16.0266 9.36222 16.0266C7.59468 16.0266 5.89954 15.3245 4.6497 14.0746C3.39986 12.8248 2.69771 11.1296 2.69771 9.3621Z" fill="#1A1A1A"/>
</svg>
